<svg width="32" height="32" viewBox="0 0 32 32" fill="none" xmlns="http://www.w3.org/2000/svg">
    <path fill-rule="evenodd" clip-rule="evenodd" d="M16 32c8.837 0 16-7.163 16-16S24.837 0 16 0 0 7.163 0 16s7.163 16 16 16z" fill="#fff" fill-opacity=".3"/>
    <path fill-rule="evenodd" clip-rule="evenodd" d="m14.1 16.002 4.313-4.464a.928.928 0 0 0-.003-1.272.846.846 0 0 0-1.229-.003l-4.93 5.104a.91.91 0 0 0-.25.631.895.895 0 0 0 .25.638l4.93 5.105a.853.853 0 0 0 1.229-.003.92.92 0 0 0 .003-1.272L14.1 16.002z" fill="#fff"/>
</svg>
